<?xml version="1.0" encoding="UTF-8" standalone="no"?>
<!-- Created with Inkscape (http://www.inkscape.org/) -->

<svg
   width="80.110901mm"
   height="44.317051mm"
   viewBox="0 0 80.110901 44.317051"
   version="1.1"
   id="svg1"
   xml:space="preserve"
   xmlns:inkscape="http://www.inkscape.org/namespaces/inkscape"
   xmlns:sodipodi="http://sodipodi.sourceforge.net/DTD/sodipodi-0.dtd"
   xmlns="http://www.w3.org/2000/svg"
   xmlns:svg="http://www.w3.org/2000/svg"><sodipodi:namedview
     id="namedview1"
     pagecolor="#ffffff"
     bordercolor="#000000"
     borderopacity="0.25"
     inkscape:showpageshadow="2"
     inkscape:pageopacity="0.0"
     inkscape:pagecheckerboard="0"
     inkscape:deskcolor="#d1d1d1"
     inkscape:document-units="mm" /><defs
     id="defs1" /><g
     inkscape:label="Capa 1"
     inkscape:groupmode="layer"
     id="layer1"
     transform="translate(-62.548035,-47.849924)"><path
       style="fill:#ffffff;fill-opacity:1"
       d="m 78.148913,91.866727 c -17.11384,-1.9854 -20.798849,-11.9943 -7.80351,-21.19519 9.41477,-6.6658 24.898682,-10.97158 38.931127,-10.82601 l 3.93137,0.0408 -4.23333,0.47596 c -9.753658,1.09662 -19.114484,3.6469 -25.954813,7.07117 -8.448114,4.22914 -13.379909,9.41524 -13.379909,14.06986 0,5.58587 6.759458,9.41023 17.638889,9.97971 4.002975,0.20953 4.214484,0.2525 2.293055,0.46577 -2.894459,0.32127 -8.279743,0.2826 -11.422879,-0.0821 z m -5.168365,-8.91842 c -0.130815,-1.04702 -0.122678,-2.43608 0.01808,-3.08681 1.675643,-7.74644 13.461574,-14.09493 31.918992,-17.19315 2.23132,-0.37454 5.20788,-0.79131 6.61459,-0.92616 2.99777,-0.28736 3.07,-0.44336 1.49628,-3.23184 l -1.06134,-1.88061 h 0.85497 c 0.57174,0 1.32023,0.52856 2.25937,1.59547 l 1.40438,1.59547 3.12352,-0.35785 c 1.71793,-0.19682 3.22795,-0.35916 3.35559,-0.36075 0.12764,-0.002 -1.17167,-2.5032 -2.88737,-5.55914 -2.53317,-4.512 -3.00791,-5.58085 -2.52601,-5.68713 0.37957,-0.0837 1.37249,0.72864 2.7552,2.25414 1.89949,2.09566 2.2741,2.35683 3.08768,2.15263 0.54567,-0.13695 0.92592,-0.0847 0.92592,0.12711 0,0.19772 -0.23813,0.3595 -0.52917,0.3595 -0.76482,0 -0.64329,0.38097 0.53454,1.67569 0.73617,0.80923 1.35583,1.14653 2.10632,1.14653 0.58482,0 1.06331,0.15875 1.06331,0.35278 0,0.19403 -0.34864,0.35278 -0.77476,0.35278 -0.71745,0 -0.68623,0.0913 0.42198,1.23472 1.07724,1.11142 1.39239,1.23675 3.15601,1.25505 2.93216,0.0304 4.78149,0.43421 4.78149,1.04399 0,0.63163 -2.46703,1.33613 -4.82105,1.37673 -1.4845,0.0256 -1.75574,0.16688 -2.76367,1.43951 -1.03575,1.30774 -1.06377,1.41111 -0.38242,1.41111 0.40436,0 0.7352,0.15875 0.7352,0.35277 0,0.19403 -0.44968,0.35278 -0.99929,0.35278 -0.74166,0 -1.29166,0.36381 -2.13329,1.41111 -1.03493,1.28783 -1.07091,1.41111 -0.41182,1.41111 0.39719,0 0.72218,0.15875 0.72218,0.35278 0,0.19403 -0.44513,0.35278 -0.98918,0.35278 -0.81071,0 -1.32788,0.44553 -2.86654,2.46944 -1.0854,1.42771 -2.142,2.46945 -2.50467,2.46945 -0.52744,0 -0.29408,-0.74404 1.46608,-4.67431 1.80794,-4.03695 2.42129,-5.38646 3.04641,-6.70277 0.0691,-0.14553 -1.43734,-0.26459 -3.34765,-0.26459 h -3.4733 l -1.31686,1.76389 c -0.80607,1.0797 -1.58789,1.76389 -2.01558,1.76389 -0.83722,0 -0.83792,-0.005 -0.17172,-1.28259 0.91011,-1.74507 0.78236,-1.8094 -2.55547,-1.28679 -7.74062,1.21195 -15.608922,3.41705 -21.065126,5.90353 -7.895706,3.59818 -14.43367,10.07647 -15.237582,15.09849 -0.301736,1.88494 -0.737321,1.63553 -1.014226,-0.58074 z"
       id="path1"
       sodipodi:nodetypes="csscsssssccscssscsscscsssssssssscsssssssssssssssscsscsssss" /><text
       xml:space="preserve"
       style="font-style:normal;font-variant:normal;font-weight:normal;font-stretch:normal;font-size:9.15187px;line-height:1.1;font-family:'LEMON MILK';-inkscape-font-specification:'LEMON MILK';text-align:center;letter-spacing:2.28797px;text-anchor:middle;fill:#ffffff;fill-opacity:1;stroke-width:0;stroke-linecap:round;stroke-linejoin:round;paint-order:fill markers stroke"
       x="114.79668"
       y="79.562866"
       id="text1"><tspan
         sodipodi:role="line"
         id="tspan1"
         x="115.94066"
         y="79.562866"
         style="font-style:normal;font-variant:normal;font-weight:normal;font-stretch:normal;font-family:'LEMON MILK';-inkscape-font-specification:'LEMON MILK';fill:#ffffff;fill-opacity:1;stroke-width:0">TRa  ELS</tspan></text><text
       xml:space="preserve"
       style="font-style:normal;font-variant:normal;font-weight:normal;font-stretch:normal;font-size:21.5373px;line-height:1.1;font-family:'LEMON MILK';-inkscape-font-specification:'LEMON MILK';text-align:center;letter-spacing:5.38432px;text-anchor:middle;fill:#ffffff;fill-opacity:1;stroke-width:0;stroke-linecap:round;stroke-linejoin:round;paint-order:fill markers stroke"
       x="115.00037"
       y="85.332237"
       id="text2"><tspan
         sodipodi:role="line"
         id="tspan2"
         x="117.69253"
         y="85.332237"
         style="font-style:normal;font-variant:normal;font-weight:normal;font-stretch:normal;font-family:'LEMON MILK';-inkscape-font-specification:'LEMON MILK';fill:#ffffff;fill-opacity:1;stroke-width:0">V</tspan></text></g></svg>
